<svg xmlns="http://www.w3.org/2000/svg" width="377.123" height="94.961" viewBox="0 0 377.123 94.961">
  <g id="dark-logo" transform="translate(0.003 -0.009)">
    <path id="Path_160" data-name="Path 160" d="M54.44,119.41a14.14,14.14,0,0,1,2.83-8.76,19,19,0,0,1,7.81-5.91,28.3,28.3,0,0,1,11.42-2.17,35,35,0,0,1,6.16.54,23.9,23.9,0,0,1,5.27,1.51v-2.05a7.83,7.83,0,0,0-2.56-6.28Q82.81,94.1,77.6,94.1a22,22,0,0,0-8.12,1.48,43.809,43.809,0,0,0-8,4.23l-4.73-10a41.36,41.36,0,0,1,10.68-5,40.82,40.82,0,0,1,11.76-1.67q11.61,0,18.06,5.45t6.44,15.77v13a5,5,0,0,0,.71,3.09,3.5,3.5,0,0,0,2.49,1.06V134.5c-1.3.26-2.52.45-3.66.59a26.579,26.579,0,0,1-3,.19q-4.4,0-6.69-1.76a7.6,7.6,0,0,1-2.88-4.78l-.29-2.25a23,23,0,0,1-8.15,6.69,22.46,22.46,0,0,1-9.91,2.3,19.42,19.42,0,0,1-9.13-2.12,16.49,16.49,0,0,1-6.4-5.77,14.87,14.87,0,0,1-2.34-8.18Zm31.06,1.82a8.14,8.14,0,0,0,1.75-1.88,3.6,3.6,0,0,0,.68-2V113a23.3,23.3,0,0,0-4.33-1.17,25.641,25.641,0,0,0-4.42-.43,12.75,12.75,0,0,0-7.09,1.83A5.54,5.54,0,0,0,69.27,118a5.27,5.27,0,0,0,1,3.09,6.88,6.88,0,0,0,2.67,2.25,9,9,0,0,0,4,.84,13.66,13.66,0,0,0,4.66-.84A12.66,12.66,0,0,0,85.5,121.23Z" transform="translate(-54.44 -40.52)"/>
    <path id="Path_161" data-name="Path 161" d="M114.5,63.54H130V116.4c0,2.15.39,3.67,1.17,4.58a4.07,4.07,0,0,0,3.29,1.36,10.53,10.53,0,0,0,3-.43,16.73,16.73,0,0,0,2.67-1l2,11.67a30,30,0,0,1-6.68,2.14,35.8,35.8,0,0,1-7.07.77q-6.59,0-10.22-3.55t-3.63-10.07Z" transform="translate(-54.44 -40.52)"/>
    <path id="Path_162" data-name="Path 162" d="M227.9,134.39H212.4V106.3q0-4.85-1.84-7.14a5.83,5.83,0,0,0-4.75-2.28,9.56,9.56,0,0,0-6.11,2.47,13.37,13.37,0,0,0-4.27,6.38v28.66h-15.5V106.3q0-5-1.84-7.18a5.85,5.85,0,0,0-4.75-2.24,9.59,9.59,0,0,0-6,2.43,13.77,13.77,0,0,0-4.36,6.27v28.81h-15.5V84h13.78v8.6a18.89,18.89,0,0,1,7.62-6.93,24.48,24.48,0,0,1,11.23-2.45q6.32,0,9.72,2.92A13.12,13.12,0,0,1,194.18,93a19.82,19.82,0,0,1,7.73-7.23,22.83,22.83,0,0,1,10.83-2.54A15.29,15.29,0,0,1,220.61,85a11.9,11.9,0,0,1,4.57,4.64,20.18,20.18,0,0,1,2.14,6.17,37,37,0,0,1,.58,6.46Z" transform="translate(-54.44 -40.52)"/>
    <path id="Path_163" data-name="Path 163" d="M237.74,116.25V84h15.5v28.82c0,3.06.61,5.41,1.84,7a6.16,6.16,0,0,0,5.23,2.44,11.85,11.85,0,0,0,4.07-.7,12,12,0,0,0,3.77-2.31,15.69,15.69,0,0,0,3.29-4.14V84h15.75v33.21a5.44,5.44,0,0,0,.7,3.21,3.51,3.51,0,0,0,2.5,1.1V134.4c-1.43.26-2.67.45-3.74.59a26.3,26.3,0,0,1-2.87.19,11.26,11.26,0,0,1-6.51-1.68,7.23,7.23,0,0,1-3-4.76l-.29-3.07a21.21,21.21,0,0,1-8.69,7.35,27.81,27.81,0,0,1-11.61,2.35q-7.77,0-11.85-4.9T237.74,116.25Z" transform="translate(-54.44 -40.52)"/>
    <path id="Path_164" data-name="Path 164" d="M331.47,96.58a27.34,27.34,0,0,0-10.15,1.8,12.62,12.62,0,0,0-6.58,5.29v30.72h-15.5V84h14.27v9.75a20.43,20.43,0,0,1,6.72-8.07C323,83.7,329,82.49,329,82.49h1.57a4.15,4.15,0,0,1,.92.09Z" transform="translate(-54.44 -40.52)"/>
    <path id="Path_165" data-name="Path 165" d="M337.62,116.25V84h15.5v28.82c0,3.06.61,5.41,1.84,7a6.15,6.15,0,0,0,5.23,2.44,11.79,11.79,0,0,0,4.06-.7,12.12,12.12,0,0,0,3.78-2.31,16.11,16.11,0,0,0,3.29-4.14V84h15.75v33.21a5.44,5.44,0,0,0,.7,3.21,3.51,3.51,0,0,0,2.49,1.1V134.4c-1.42.26-2.67.45-3.74.59a26,26,0,0,1-2.86.19,11.26,11.26,0,0,1-6.51-1.68,7.19,7.19,0,0,1-3-4.76l-.29-3.07a21.21,21.21,0,0,1-8.69,7.35,27.85,27.85,0,0,1-11.61,2.35q-7.77,0-11.85-4.9T337.62,116.25Z" transform="translate(-54.44 -40.52)"/>
    <path id="Path_166" data-name="Path 166" d="M431.56,131.73c-1.42.58-3,1.17-4.7,1.75a40.589,40.589,0,0,1-5.37,1.41,30.138,30.138,0,0,1-5.52.53,19.07,19.07,0,0,1-7.12-1.29,10.57,10.57,0,0,1-5.14-4.26,14.47,14.47,0,0,1-1.88-7.86V95.77h-6.4V84h6.4V67.73h15.74V84H427.9V95.77H417.32v20.81a4.49,4.49,0,0,0,1.26,3.56,4.71,4.71,0,0,0,3.2,1.09,11.88,11.88,0,0,0,3.53-.58,22.141,22.141,0,0,0,3.25-1.26Z" transform="translate(-54.44 -40.52)"/>
    <path id="Path_167" data-name="Path 167" d="M99.77,82.81a17.85,17.85,0,0,0-1.65-1.6q-6.37-5.38-17.84-5.38-1.84,0-3.63.15a27.37,27.37,0,0,1,0-35.45A27.31,27.31,0,0,1,99.77,82.81Z" transform="translate(-54.44 -40.52)" fill="#ff4e00"/>
  </g>
</svg>
