<svg width="99" height="49" viewBox="0 0 99 49" fill="none" xmlns="http://www.w3.org/2000/svg">
	<path d="M4.62602 21.3997H0.0489815V0H4.03937L14.7141 13.9406H14.8403V0H19.4173V21.3997H15.4582L4.76839 7.38536H4.62602V21.3997ZM28.9359 3.70733L26.0219 9.37282H22.0466L27.0518 0.296889H31.1532L36.1261 9.37282H32.0398L29.2045 3.70733H28.9359ZM38.3273 21.3997V5.50191H42.7932V8.37909H42.8881C43.2476 7.40994 43.8595 6.63935 44.7248 6.06543C45.5901 5.49151 46.5938 5.20502 47.7338 5.20502C48.9585 5.20502 49.9824 5.49151 50.8063 6.06543C51.6292 6.62895 52.1846 7.4298 52.4693 8.46797H52.5642C52.9439 7.46951 53.6042 6.67812 54.5443 6.09474C55.4944 5.50191 56.592 5.20502 57.838 5.20502C59.506 5.20502 60.8469 5.69479 61.8607 6.67339C62.8845 7.65199 63.3965 8.94261 63.3965 10.5443V21.3997H58.772V11.6269C58.772 10.7079 58.5347 10.0054 58.0591 9.52126C57.5845 9.02676 56.8979 8.77998 56.0003 8.77998C55.1239 8.77998 54.4161 9.05229 53.8779 9.59596C53.3498 10.1396 53.0863 10.8563 53.0863 11.746V21.4006H48.6364V11.4936C48.6364 10.6436 48.3941 9.98078 47.9074 9.50613C47.4218 9.02203 46.7513 8.77904 45.8961 8.77904C45.0196 8.77904 44.3068 9.0608 43.7575 9.62432C43.2193 10.1878 42.9497 10.9149 42.9497 11.8047V21.3997H38.3273ZM76.4167 21.6521C75.1919 21.6521 74.1156 21.3902 73.1856 20.8664C72.2668 20.3426 71.5701 19.6108 71.0955 18.6719H71.0006V21.4006H66.4397V0H71.0642V8.2609H71.1591C71.6347 7.31161 72.3254 6.57506 73.2341 6.05125C74.1418 5.51704 75.198 5.2504 76.4016 5.2504C78.5452 5.2504 80.2294 5.9775 81.4542 7.43074C82.6891 8.88399 83.307 10.8913 83.307 13.4517C83.307 16.0027 82.6941 18.01 81.4703 19.4727C80.2445 20.926 78.5603 21.6521 76.4167 21.6521ZM74.8173 8.72042C73.6986 8.72042 72.7898 9.15535 72.0931 10.0252C71.3964 10.8951 71.0481 12.0373 71.0481 13.4508C71.0481 14.8842 71.3914 16.0311 72.078 16.8915C72.7747 17.7415 73.6885 18.167 74.8173 18.167C75.9785 18.167 76.8923 17.7472 77.5577 16.9066C78.2332 16.0566 78.5715 14.904 78.5715 13.4508C78.5715 12.007 78.2332 10.8601 77.5577 10.0101C76.8812 9.15062 75.9674 8.72042 74.8173 8.72042ZM91.8108 3.70733L88.8968 9.37282H84.9215L89.9257 0.296889H94.0272L99 9.37282H94.9137L92.0784 3.70733H91.8108Z" fill="#f67803"></path>
	<path d="M27.3623 48.6142V24.4177H21.095L13.7523 41.7896H13.6089L6.2673 24.4177H0V48.6142H4.81735V32.2815H4.96073L11.9803 48.6142H15.383L22.4025 32.2815H22.5459V48.6142H27.3623ZM43.9256 43.1142C43.442 44.489 41.9738 45.3778 40.0574 45.3778C37.3897 45.3778 35.652 43.6172 35.652 41.0511V40.7495H48.8853V39.2575C48.8853 33.7915 45.3574 30.2534 39.7706 30.2534C34.094 30.2534 30.5126 33.9759 30.5126 39.7104C30.5126 45.4619 34.0577 49 39.9675 49C44.7132 49 48.1513 46.6362 48.7238 43.1142H43.9256ZM39.8252 33.8747C42.1536 33.8747 43.7469 35.4509 43.8539 37.7485H35.7065C35.8853 35.501 37.5331 33.8747 39.8252 33.8747ZM58.7169 48.8988C61.5461 48.8988 63.7665 47.507 64.6975 45.5281H64.7873V48.6133H69.9449V24.4177H64.7166V33.7244H64.6096C63.6787 31.7294 61.53 30.3536 58.7543 30.3536C53.9369 30.3536 50.8926 33.8917 50.8926 39.5931C50.8916 45.3447 53.9177 48.8988 58.7169 48.8988ZM60.49 34.2775C63.0859 34.2775 64.752 36.3567 64.752 39.6262C64.752 42.9128 63.087 44.9589 60.49 44.9589C57.8577 44.9589 56.2461 42.9298 56.2461 39.6262C56.2461 36.3397 57.8577 34.2775 60.49 34.2775ZM76.1224 28.2073C77.644 28.2073 78.8446 27.0671 78.8446 25.6923C78.8446 24.3005 77.645 23.1772 76.1224 23.1772C74.6007 23.1772 73.4002 24.3005 73.4002 25.6923C73.4002 27.0671 74.6007 28.2073 76.1224 28.2073ZM73.5264 48.6142H78.7557V30.6382H73.5264V48.6142ZM87.9411 48.8988C90.3402 48.8988 92.7221 47.7756 93.7964 45.8638H93.9034V48.6142H98.953V36.2555C98.953 32.6333 95.7472 30.2525 90.8228 30.2525C85.7369 30.2525 82.5674 32.6503 82.3705 36.1383H87.1515C87.4019 34.8136 88.6378 33.9078 90.5896 33.9078C92.5595 33.9078 93.8126 34.8807 93.8126 36.5571V37.7475L88.9781 38.016C84.1971 38.2846 81.5112 40.1794 81.5112 43.4489C81.5122 46.6854 84.2879 48.8988 87.9411 48.8988ZM89.6596 45.3607C87.8866 45.3607 86.7052 44.5221 86.7052 43.1814C86.7052 41.9068 87.8159 41.0852 89.7676 40.9509L93.8146 40.7164V42.024C93.8146 43.969 91.9345 45.3607 89.6596 45.3607Z" fill="#f67803"></path>
	</svg>