<svg xmlns="http://www.w3.org/2000/svg" viewBox="0 0 797.9 287.3"><path d="M101.1 0C45.3 0 0 43.1 0 96.3c0 53.2 45.3 96.3 101.1 96.3s101.1-43.1 101.1-96.3C202.2 43.1 157 0 101.1 0zm0 147.2c-26.3 0-47.7-22.8-47.7-50.9 0-28.1 21.3-50.9 47.7-50.9 26.3 0 47.7 22.8 47.7 50.9 0 28.1-21.4 50.9-47.7 50.9zM696.8 0c-55.9 0-101.1 43.1-101.1 96.3 0 53.2 45.3 96.3 101.1 96.3s101.1-43.1 101.1-96.3C797.9 43.1 752.6 0 696.8 0zm0 147.2c-26.3 0-47.7-22.8-47.7-50.9 0-28.1 21.3-50.9 47.7-50.9 26.3 0 47.7 22.8 47.7 50.9 0 28.1-21.4 50.9-47.7 50.9zm-493-3.2h20.6v20.6h-20.6zm26.9 0h20.6v20.6h-20.6zm-26.9 25.6h20.6v20.6h-20.6zm26.9 0h20.6v20.6h-20.6zM204.3 3l45.4 68.3V48.4h35.9v76.7l42.8 64.4 47.9.8-44.8-65.9s38.7-11.3 38.7-60.4-50.8-61-65.9-61h-100zm272.9 0h-80.6v187.2h81.3s96.6-3.5 96.6-93.6S485 3 477.2 3zm-.9 141.7h-28.2V48.4H474c6.3 0 47.3 1.5 47.3 48.2s-45 48.1-45 48.1zM0 259.6c0-12.8 9.6-23.2 23.2-23.2 8.3 0 13.3 2.9 17.6 7l-5.1 5.8c-3.6-3.3-7.4-5.6-12.6-5.6-8.6 0-14.8 7.1-14.8 16 0 8.8 6.2 16 14.8 16 5.5 0 9-2.2 12.9-5.8l5.1 5.1c-4.7 4.9-9.8 8-18.2 8C9.7 282.8 0 272.6 0 259.6zm46 0c0-12.6 9.7-23.2 23.5-23.2s23.4 10.5 23.4 23.2c0 12.6-9.7 23.2-23.5 23.2S46 272.4 46 259.6zm38.7 0c0-8.7-6.3-16-15.3-16s-15.1 7.1-15.1 16c0 8.7 6.3 16 15.3 16 8.9 0 15.1-7.1 15.1-16zm17.9-22.4h7.3l24 31v-31h7.8V282h-6.6l-24.8-31.9V282h-7.8v-44.8zm47.6 38.3l4.7-5.6c4.3 3.7 8.6 5.8 14.2 5.8 4.9 0 8-2.2 8-5.8 0-3.2-1.8-4.9-10.1-6.9-9.6-2.2-14.9-5.1-14.9-13.5 0-7.7 6.4-13 15.3-13 6.5 0 11.7 2 16.3 5.6l-4.2 6c-4-3-8.1-4.6-12.2-4.6-4.6 0-7.3 2.4-7.3 5.5 0 3.5 2.1 5 10.6 7.1 9.5 2.3 14.4 5.7 14.4 13.3 0 8.4-6.6 13.4-16 13.4-6.9-.1-13.4-2.5-18.8-7.3zm54.1-31h-14.2v-7.3h36.4v7.3h-14.2V282h-8v-37.5zm30.6-7.3h20c10.5 0 16.7 5.6 16.7 14.3 0 7.4-4.4 11.8-10.7 13.6l12.1 17h-9.3l-11.2-15.6h-9.7V282h-7.9v-44.8zm19.4 22.2c5.6 0 9.2-3 9.2-7.6 0-4.8-3.5-7.4-9.3-7.4h-11.5v15.1h11.6zm26.2 3.6v-25.8h7.9v25.5c0 8.3 4.3 12.8 11.4 12.8 7 0 11.3-4.2 11.3-12.5v-25.8h7.9v25.5c0 13.4-7.6 20.1-19.3 20.1-11.7 0-19.2-6.8-19.2-19.8zm47.3-3.4c0-12.8 9.6-23.2 23.2-23.2 8.3 0 13.3 2.9 17.6 7l-5.1 5.8c-3.6-3.3-7.4-5.6-12.6-5.6-8.6 0-14.8 7.1-14.8 16 0 8.8 6.2 16 14.8 16 5.5 0 9-2.2 12.9-5.8l5.1 5.1c-4.7 4.9-9.8 8-18.2 8-13.2-.1-22.9-10.3-22.9-23.3zm60.3-15.1h-14.2v-7.3h36.4v7.3h-14.2V282h-8v-37.5zm31-7.3h7.9V282h-7.9v-44.8zm17.9 22.4c0-12.6 9.7-23.2 23.5-23.2s23.4 10.5 23.4 23.2c0 12.6-9.7 23.2-23.5 23.2S437 272.4 437 259.6zm38.7 0c0-8.7-6.3-16-15.3-16-8.9 0-15.1 7.1-15.1 16 0 8.7 6.3 16 15.3 16 8.9 0 15.1-7.1 15.1-16zm17.8-22.4h7.3l24 31v-31h7.8V282H526l-24.8-31.9V282h-7.8v-44.8zm67.9 22.4c0-12.6 9.6-23.2 23.2-23.2 7.8 0 12.6 2.2 17.3 6.1l-5 6c-3.5-3-6.9-4.8-12.6-4.8-8.3 0-14.6 7.2-14.6 16 0 9.2 6.1 16 15.3 16 4.2 0 8.1-1.3 10.8-3.4v-8.4h-11.5V257h19.1v18.9c-4.4 3.8-10.8 7-18.7 7-14-.1-23.3-10.1-23.3-23.3zm52.3-22.4h20c10.5 0 16.7 5.6 16.7 14.3 0 7.4-4.4 11.8-10.7 13.6l12.1 17h-9.3l-11.2-15.6h-9.7V282h-7.9v-44.8zm19.4 22.2c5.6 0 9.2-3 9.2-7.6 0-4.8-3.5-7.4-9.3-7.4h-11.5v15.1h11.6zm25 .2c0-12.6 9.7-23.2 23.5-23.2s23.4 10.5 23.4 23.2c0 12.6-9.7 23.2-23.5 23.2s-23.4-10.4-23.4-23.2zm38.7 0c0-8.7-6.3-16-15.3-16s-15.1 7.1-15.1 16c0 8.7 6.3 16 15.3 16 8.8 0 15.1-7.1 15.1-16zm17.1 3.4v-25.8h7.9v25.5c0 8.3 4.3 12.8 11.4 12.8 7 0 11.3-4.2 11.3-12.5v-25.8h7.9v25.5c0 13.4-7.6 20.1-19.3 20.1-11.8 0-19.2-6.8-19.2-19.8zm49.2-25.8h17.7c10.5 0 17.1 6 17.1 15.1 0 10.1-8.1 15.3-18 15.3H771V282h-7.9v-44.8zm17.1 23.3c6 0 9.7-3.3 9.7-8.1 0-5.3-3.8-8-9.7-8H771v16.2h9.2z" fill="#1b4add"/></svg>