<svg width="18" height="16" viewBox="0 0 18 16" fill="none" xmlns="http://www.w3.org/2000/svg">
<path d="M16.4938 0.00163822C16.2738 0.017643 16.0579 0.0692518 15.8544 0.154451H15.8517C15.6564 0.231886 14.7279 0.622484 13.3162 1.21455L8.25764 3.34503C4.62781 4.87316 1.05966 6.37799 1.05966 6.37799L1.10215 6.36154C1.10215 6.36154 0.856139 6.4424 0.599167 6.61852C0.440411 6.71954 0.303801 6.85172 0.197604 7.00706C0.071516 7.19208 -0.0299026 7.47509 0.00778678 7.7677C0.0694602 8.26246 0.390162 8.55917 0.62041 8.72295C0.853398 8.88878 1.07542 8.96622 1.07542 8.96622H1.08091L4.42703 10.0935C4.57711 10.5752 5.4467 13.4341 5.65571 14.0927C5.77905 14.486 5.89897 14.732 6.04905 14.9198C6.12168 15.0157 6.20666 15.0959 6.30876 15.1603C6.36184 15.1912 6.41844 15.2156 6.47733 15.2329L6.44307 15.2247C6.45335 15.2274 6.46157 15.2357 6.46911 15.2384C6.49652 15.2459 6.51502 15.2487 6.54997 15.2542C7.07968 15.4145 7.50522 15.0856 7.50522 15.0856L7.52921 15.0664L9.50482 13.2676L12.816 15.8079L12.8914 15.8401C13.5814 16.143 14.2804 15.9744 14.6498 15.677C15.0218 15.3775 15.1664 14.9945 15.1664 14.9945L15.1904 14.9328L17.7492 1.82443C17.8218 1.50099 17.8403 1.1981 17.7601 0.904127C17.6775 0.606604 17.4866 0.350715 17.225 0.186658C17.0053 0.0531115 16.7505 -0.0113485 16.4938 0.00163822ZM16.4246 1.40642C16.4218 1.44959 16.4301 1.4448 16.4109 1.52771V1.53525L13.8761 14.5072C13.8651 14.5257 13.8466 14.5662 13.7959 14.6066C13.7425 14.6491 13.7 14.6758 13.4773 14.5874L9.42738 11.4825L6.981 13.7123L7.49495 10.4299L14.1118 4.26259C14.3846 4.00904 14.2934 3.95559 14.2934 3.95559C14.3126 3.64448 13.8816 3.86445 13.8816 3.86445L5.53784 9.03337L5.5351 9.01967L1.53592 7.67313V7.67039L1.52564 7.66833C1.53265 7.66601 1.53951 7.66326 1.5462 7.66011L1.56813 7.64915L1.58937 7.64161C1.58937 7.64161 5.16026 6.13678 8.79009 4.60865C10.6074 3.84321 12.4384 3.07229 13.8466 2.47749C15.2548 1.88611 16.2957 1.45234 16.3547 1.42904C16.4109 1.40711 16.3841 1.40711 16.4246 1.40711V1.40642Z" fill="#14213d"/>
</svg>
