<svg id="Слой_1" data-name="Слой 1" xmlns="http://www.w3.org/2000/svg" viewBox="0 0 553.64 121.35"><title>gudini2</title><rect id="_Прямоугольник_" data-name="&lt;Прямоугольник&gt;" x="-22.84" y="-123.08" width="595.28" height="841.89" style="fill:#fff"/><g id="_Группа_" data-name="&lt;Группа&gt;"><g id="_Группа_2" data-name="&lt;Группа&gt;"><path id="_Составной_контур_" data-name="&lt;Составной контур&gt;" d="M189,81.66l-.39.42c-1.59.38-2.5.91-2.76,1.59s-.38,3.27-.38,7.77q0,3.25.3,6.44-12.81,4.83-23.24,4.83-13.73,0-22.23-7.69t-8.49-21q0-17.3,15-24.66Q153.71,46,164.3,46a59.64,59.64,0,0,1,12.42,1.33,38.47,38.47,0,0,1,8.17,2.54l.35.69a64.11,64.11,0,0,0-1.65,11.74l-.42.38h-2.3l-.39-.38c0-.49,0-1.49-.15-3a19.73,19.73,0,0,0-.39-3.2,12.73,12.73,0,0,0-5.75-3.91,25.85,25.85,0,0,0-9.43-1.69q-13.59,0-18.76,11a27.29,27.29,0,0,0-2.38,11.74q0,10.66,5.68,17.68a18.86,18.86,0,0,0,15.38,7.29,23,23,0,0,0,9.7-2.15c.18-1.79.27-4.24.27-7.37a21.48,21.48,0,0,0-.27-4.6c-.15-.41-.64-.7-1.45-.88s-2.86-.34-6.49-.57l-.42-.39V79.81l.42-.38q5.56.15,11.66.12l10.55-.12.39.38Z"/><path id="_Составной_контур_2" data-name="&lt;Составной контур&gt;" d="M267.58,49.86l-.39.38q-4.53,0-5.1,2.42a40,40,0,0,0-.46,5.83c-.08,2.22-.11,5.43-.11,9.63V79.93q0,11.4-4.49,16.26-6,6.45-17,6.45-10,0-15.68-3.34a13.24,13.24,0,0,1-6.22-8.06q-.91-3.33-.92-17.41V63.94a84.72,84.72,0,0,0-.5-11.89,1.66,1.66,0,0,0-1.3-1.42,43.89,43.89,0,0,0-4.49-.39l-.38-.38V47.29l.38-.38q3.69.23,11.81.23,8.29,0,11.78-.23l.39.38v2.57l-.39.38a44.23,44.23,0,0,0-4.49.39,1.66,1.66,0,0,0-1.3,1.42,86.38,86.38,0,0,0-.5,11.89v7.9q0,14.49,1.3,17.76Q232.17,96,242.41,96q6.72,0,10.47-3.3a9.31,9.31,0,0,0,2.46-3.18,18.85,18.85,0,0,0,1.07-5,58.24,58.24,0,0,0,.35-6.36v-8q0-10.05-.08-13.74a16.93,16.93,0,0,0-.46-4.48,2.23,2.23,0,0,0-1.34-1.19,22.11,22.11,0,0,0-4.72-.58l-.38-.38V47.29l.38-.38c2.23.15,4.51.23,6.87.23q2.64,0,10.16-.23l.39.38Z"/><path id="_Составной_контур_3" data-name="&lt;Составной контур&gt;" d="M347,70.88q0,13-8.47,21.56a28.74,28.74,0,0,1-10,6.48,38.3,38.3,0,0,1-14.77,2.34L300.16,101c-3.68,0-6.72,0-9.13.23l-.38-.39V99.8l.19-.46a13.58,13.58,0,0,0,3.07-2.26c.23-.46.37-2.16.42-5.11l.12-8.59V63.94a86.38,86.38,0,0,0-.5-11.89,1.67,1.67,0,0,0-1.31-1.42,43.87,43.87,0,0,0-4.48-.39l-.39-.38V47.25l.39-.34q4.06.23,7.74.23,8.94,0,16.11-.23,3.57-.12,7.18-.12c6.64,0,11.75.76,15.3,2.26a19.5,19.5,0,0,1,9.13,7.83Q347,62.37,347,70.88Zm-11.77,1.84q0-10.62-5.14-16.34a14.48,14.48,0,0,0-6.72-4.22A38.77,38.77,0,0,0,312.66,51a45.39,45.39,0,0,0-6.82.5q-.39,4.29-.39,20.79l.08,16.76a68.25,68.25,0,0,0,.31,7.44,43.61,43.61,0,0,0,6.9.54q7.63,0,12-2.23a17.16,17.16,0,0,0,7.56-8.21A31.61,31.61,0,0,0,335.22,72.72Z"/><path id="_Составной_контур_4" data-name="&lt;Составной контур&gt;" d="M393.77,100.87l-.34.39q-3.84-.24-11.86-.23t-11.81.23l-.34-.39V98.3l.38-.38a42.59,42.59,0,0,0,4.49-.38,1.68,1.68,0,0,0,1.3-1.42,86.48,86.48,0,0,0,.5-11.89V63.94a86.38,86.38,0,0,0-.5-11.89,1.67,1.67,0,0,0-1.3-1.42,44.23,44.23,0,0,0-4.49-.39l-.38-.38V47.25l.38-.34q3.69.23,11.81.23t11.78-.23l.38.34v2.61l-.38.38a43.89,43.89,0,0,0-4.49.39,1.66,1.66,0,0,0-1.3,1.42,84.72,84.72,0,0,0-.5,11.89V84.23a84.82,84.82,0,0,0,.5,11.89,1.67,1.67,0,0,0,1.3,1.42,42.27,42.27,0,0,0,4.49.38l.38.38Z"/><path id="_Составной_контур_5" data-name="&lt;Составной контур&gt;" d="M475.49,49.86l-.42.38a43.89,43.89,0,0,0-4.49.39,1.66,1.66,0,0,0-1.3,1.42,84.72,84.72,0,0,0-.5,11.89V79.51q0,17.22.5,22.44l-.5.34c-2.89-.48-5.08-.83-6.56-1q-10.28-11.55-35.1-42.12V84.23a86.48,86.48,0,0,0,.5,11.89,1.68,1.68,0,0,0,1.31,1.42,41.93,41.93,0,0,0,4.48.38l.39.38v2.61l-.39.35c-2.94-.16-5.67-.23-8.2-.23-2.95,0-5.9.07-8.86.23l-.39-.35V98.3l.39-.38a42.25,42.25,0,0,0,4.48-.38,1.69,1.69,0,0,0,1.31-1.42,87.08,87.08,0,0,0,.49-11.89V63.94a87,87,0,0,0-.49-11.89,1.68,1.68,0,0,0-1.31-1.42,43.87,43.87,0,0,0-4.48-.39l-.39-.38V47.25l.39-.34c2.42.15,4.74.23,6.94.23q5.18,0,8.59-.23,13.8,18.41,32.45,39.47V63.94a86.38,86.38,0,0,0-.5-11.89,1.67,1.67,0,0,0-1.3-1.42,44.23,44.23,0,0,0-4.49-.39l-.39-.38V47.25l.39-.34q4.29.23,8.17.23c3.3,0,6.26-.08,8.9-.23l.38.34Z"/><path id="_Составной_контур_6" data-name="&lt;Составной контур&gt;" d="M521.2,100.87l-.35.39Q517,101,509,101t-11.81.23l-.35-.39V98.3l.38-.38a42.27,42.27,0,0,0,4.49-.38,1.67,1.67,0,0,0,1.3-1.42,84.25,84.25,0,0,0,.51-11.89V63.94A84.15,84.15,0,0,0,503,52.05a1.66,1.66,0,0,0-1.3-1.42,43.89,43.89,0,0,0-4.49-.39l-.38-.38V47.25l.38-.34q3.69.23,11.82.23c5.39,0,9.32-.08,11.77-.23l.39.34v2.61l-.39.38a43.52,43.52,0,0,0-4.48.39A1.67,1.67,0,0,0,515,52.05a86.38,86.38,0,0,0-.5,11.89V84.23a86.48,86.48,0,0,0,.5,11.89,1.68,1.68,0,0,0,1.31,1.42,41.93,41.93,0,0,0,4.48.38l.39.38Z"/></g><path id="_Контур_" data-name="&lt;Контур&gt;" d="M37,106.52a29.58,29.58,0,0,0,12.65,11.09,41.47,41.47,0,0,0,17.86,3.74,69.72,69.72,0,0,0,25.08-4.67l.27-.45a78,78,0,0,1-.49-8.42c0-2.28.06-4.22.2-5.81a15,15,0,0,1,.33-2.65,2.74,2.74,0,0,1,.94-.76l2.18-1.29.18-.53V95.43l-.45-.36q-4.91.27-7.44.27-4.41,0-11.4-.22L74.23,95l-.4.4v2l.4.4a52.92,52.92,0,0,1,7.6.45A3,3,0,0,1,84,99.46a12.49,12.49,0,0,1,.45,4.39v4.94a26.51,26.51,0,0,1-.4,5.75,22.53,22.53,0,0,1-6.35,2.07,40.27,40.27,0,0,1-7.55.73,27.83,27.83,0,0,1-14.92-4,25.94,25.94,0,0,1-9.84-11,33.88,33.88,0,0,1-3-9.27c-3.4.87-6.64,1.6-9.61,2.12A29.59,29.59,0,0,0,37,106.52Z"/><path id="_Контур_2" data-name="&lt;Контур&gt;" d="M16.57,33.58s-4.5.64-7-.12c1.71,2.32,4.17,5.83,7.85,11.8,5.32,8.63,10.65,20.25,13.84,27.59q2.36-.9,5.13-2C33,61.73,25.61,43.84,16.57,33.58Z"/><path id="_Контур_3" data-name="&lt;Контур&gt;" d="M78.49,47c-1,.68-2,1.4-3,2.15-3,2.16-6.34,4.52-10.06,7A136.16,136.16,0,0,1,52.91,63.4c-1.8.94-3.65,1.85-5.63,2.75-1.79.81-3.47,1.54-5.09,2.24-5.43-16.88-18-36.29-18-36.29,24.46-7,34.37-18.29,35.12-19.19-.57.55-5.6,5.19-19.57,10.85-27.3,11-32.25,6.51-34,4C4.42,24.7,12,15.6,32.55,6.89S64.93-.89,66.22,2.16s.48,5.12,4.4,20.6A244,244,0,0,0,78.49,47Z"/><path id="_Контур_4" data-name="&lt;Контур&gt;" d="M103.26,54a10.1,10.1,0,0,1-.48,1.85,14.8,14.8,0,0,1-1.34,2.92,23.31,23.31,0,0,1-1.38,2,26.17,26.17,0,0,1-1.78,2,29.1,29.1,0,0,1-2.2,2,37.83,37.83,0,0,1-4.22,2.93c-.5.3-1,.59-1.54.88s-1.2.65-1.85,1a.56.56,0,0,0-.13.07l-.45.23-1.42.72-.69.32-1.59.77-.58.28c-.73.35-1.48.69-2.26,1l-.42.19L79,74c-.27.1-.53.22-.8.34l-1.75.75-.79.33-2.16.9c-.13.06-.27.1-.42.16l-2.63,1.07-.69.26c-.67.27-1.35.53-2,.78l-.88.35-2,.75-.78.28c-1.84.67-3.7,1.35-5.56,2l-.82.27c-.66.24-1.33.46-2,.69l-.89.28-2.14.71-.66.21L49.27,85c-.18,0-.34.1-.51.15l-2.2.64-.83.26-1.9.52-.81.23L42,87l-1.19.32-.35.09L38,88.06l-.68.15c-.58.14-1.16.27-1.75.39l-.77.17c-.56.1-1.11.22-1.65.31l-.66.14h-.07c-.71.12-1.41.24-2.09.34a1.13,1.13,0,0,1-.18,0l-1.82.24-.61.06c-.45.06-.89.09-1.31.12a5.82,5.82,0,0,1-.6,0l-1.28.06h-.42a13.26,13.26,0,0,1-1.56,0h-.16c-.44,0-.83-.08-1.2-.14l-.39-.09c-.27-.06-.54-.12-.78-.19l-.37-.14c-.21-.09-.41-.17-.59-.26a2,2,0,0,1-.3-.2,2.93,2.93,0,0,1-.43-.34,2.41,2.41,0,0,1-.21-.24A1.64,1.64,0,0,1,17.8,88a1.27,1.27,0,0,1-.12-.23,2.66,2.66,0,0,1-.14-.85,3,3,0,0,1,.2-1.14,2.79,2.79,0,0,1,.37-.64A4.73,4.73,0,0,1,19.49,84c.31-.19.66-.37,1.05-.57.58-.28,1.25-.58,2.05-.9,2.51-1,6.09-2.23,11-4.13,1.22-.46,2.51-1,3.89-1.52.3-.12.61-.24.91-.38,1.92-.76,4-1.63,6.21-2.6,1.64-.69,3.33-1.44,5.14-2.26,1.55-.71,3.07-1.44,4.53-2.17S57.18,68,58.55,67.2s2.7-1.5,4-2.26c3.06-1.81,5.89-3.64,8.51-5.41C73,58.23,74.78,57,76.5,55.75l4.21-3c6.43-4.58,11.3-7.81,15.47-7.81a7.59,7.59,0,0,1,3.1.61,6.46,6.46,0,0,1,1.83,1.18s0,0,0,0a7,7,0,0,1,1.5,2c.12.27.22.52.33.81a9.15,9.15,0,0,1,.3,1.12A10,10,0,0,1,103.26,54Z"/></g></svg>