<svg xmlns="http://www.w3.org/2000/svg" viewBox="0 0 362.73 168.43"><defs><style>.cls-1{fill:#4d4d4d;}.cls-1,.cls-2{fill-rule:evenodd;}.cls-2,.cls-3{fill:#ee3338;}</style></defs><g id="Слой_2" data-name="Слой 2"><g id="Слой_1-2" data-name="Слой 1"><path class="cls-1" d="M15.61,26.83a15.43,15.43,0,0,1,5.61-3.78A22.55,22.55,0,0,1,29,21.9q9.22,0,14.11,5.26T48,42.49V64.88q0,5.75-1.93,8.55a6.69,6.69,0,0,1-5.89,2.8,6.75,6.75,0,0,1-5.91-2.8q-1.94-2.81-1.93-8.55V47.22c0-4.34-.64-7.44-2-9.3s-3.46-2.77-6.46-2.77c-2.83,0-4.92,1-6.27,2.87s-2.05,4.91-2.05,9V64.88q0,5.75-1.93,8.55a6.69,6.69,0,0,1-5.89,2.8,6.64,6.64,0,0,1-5.88-2.8Q0,70.63,0,64.88V11.4Q0,5.61,1.91,2.8A6.64,6.64,0,0,1,7.79,0a6.65,6.65,0,0,1,5.89,2.85c1.29,1.9,1.93,4.76,1.93,8.55V26.83ZM71.35,49c0,4,1,7.21,2.85,9.64a9.4,9.4,0,0,0,14.89,0A15.35,15.35,0,0,0,91.94,49,14.52,14.52,0,0,0,89,39.62a9.34,9.34,0,0,0-14.78,0A14.7,14.7,0,0,0,71.35,49Zm-16.14.18q0-12.16,7.46-20t19-7.85q11.56,0,19,7.82T108,49.2q0,12.25-7.4,20.1t-19,7.86q-11.51,0-19-7.89T55.21,49.2Zm60.51,15.68V33.5q0-5.8,1.93-8.65A6.62,6.62,0,0,1,123.51,22a7.05,7.05,0,0,1,4.12,1.28A11.28,11.28,0,0,1,131,27.16a15.29,15.29,0,0,1,5.46-3.91,18.23,18.23,0,0,1,7-1.25,20.6,20.6,0,0,1,8.9,1.83A18.24,18.24,0,0,1,159,29.34a23,23,0,0,1,7.21-5.63,19.94,19.94,0,0,1,8.5-1.71q8.37,0,13,5.36c3.09,3.58,4.64,8.61,4.64,15.13V64.88c0,3.83-.65,6.68-1.93,8.55a6.75,6.75,0,0,1-5.91,2.8,6.55,6.55,0,0,1-5.84-2.77q-1.9-2.79-1.9-8.58V47.22c0-4.09-.58-7.09-1.72-9a5.8,5.8,0,0,0-5.37-2.85,6.71,6.71,0,0,0-6,2.8c-1.26,1.87-1.88,4.82-1.88,8.85V64.88c0,3.83-.65,6.68-1.93,8.55a7.62,7.62,0,0,1-11.8,0q-1.94-2.81-1.93-8.55V47.22c0-4.12-.56-7.12-1.7-9a5.71,5.71,0,0,0-5.31-2.84c-2.71,0-4.69.94-5.94,2.8s-1.9,4.82-1.9,8.85V64.88c0,3.83-.65,6.68-1.93,8.55a7.58,7.58,0,0,1-11.77,0q-1.91-2.81-1.91-8.55ZM215.4,43.36H236a9.71,9.71,0,0,0-3.2-6.63,9.85,9.85,0,0,0-6.91-2.66,10,10,0,0,0-6.82,2.53,11.55,11.55,0,0,0-3.66,6.76Zm.18,10.2a9.92,9.92,0,0,0,3.63,6.87,12.78,12.78,0,0,0,8.17,2.45,23.35,23.35,0,0,0,9.78-2.52c3.6-1.7,5.81-2.54,6.65-2.54a6.27,6.27,0,0,1,4.51,1.68,5.88,5.88,0,0,1,1.73,4.36q0,5-7,9.06a32.48,32.48,0,0,1-16.49,4,25.94,25.94,0,0,1-19.29-7.89q-7.71-7.87-7.72-19.77t7.51-19.91a24.69,24.69,0,0,1,18.74-8,24.27,24.27,0,0,1,18.12,7.49,25.25,25.25,0,0,1,7.31,18.31c0,2.36-.53,4-1.6,4.94s-3.12,1.4-6.14,1.4Z"/><path class="cls-1" d="M144.33,135.66V104.27c0-3.83.64-6.66,1.91-8.53A6.65,6.65,0,0,1,152.12,93a7.52,7.52,0,0,1,4.21,1.22,10.83,10.83,0,0,1,3.23,3.75,15.09,15.09,0,0,1,5.81-4,22.33,22.33,0,0,1,8-1.26q9.22,0,14.11,5.27t4.88,15.33v22.39q0,5.75-1.93,8.54a7.6,7.6,0,0,1-11.8,0q-1.93-2.79-1.93-8.54V118c0-4.34-.64-7.44-1.95-9.3s-3.46-2.78-6.46-2.78q-4.24,0-6.27,2.87t-2.05,9v17.86q0,5.75-1.93,8.54a7.57,7.57,0,0,1-11.77,0q-1.91-2.79-1.91-8.54Zm71.07-21.52H236a9.71,9.71,0,0,0-3.2-6.63,10.38,10.38,0,0,0-13.73-.13,11.52,11.52,0,0,0-3.66,6.76Zm.18,10.2a9.9,9.9,0,0,0,3.63,6.86,12.73,12.73,0,0,0,8.17,2.46,23.35,23.35,0,0,0,9.78-2.52c3.6-1.7,5.81-2.55,6.65-2.55a6.27,6.27,0,0,1,4.51,1.69,5.87,5.87,0,0,1,1.73,4.35q0,5-7,9.06a32.48,32.48,0,0,1-16.49,4.05,25.94,25.94,0,0,1-19.29-7.89q-7.71-7.87-7.72-19.77t7.51-19.92a24.73,24.73,0,0,1,18.74-8,24.28,24.28,0,0,1,18.12,7.5A25.25,25.25,0,0,1,251.22,118c0,2.36-.53,4-1.6,4.93s-3.12,1.41-6.14,1.41Z"/><path class="cls-1" d="M88.81,157c0,3.86.64,6.73,2,8.59a6.66,6.66,0,0,0,5.89,2.81,6.5,6.5,0,0,0,5.77-2.82c1.27-1.9,1.92-4.76,1.92-8.58V103.55q0-5.79-1.88-8.58a6.56,6.56,0,0,0-5.81-2.78A6.68,6.68,0,0,0,90.76,95c-1.31,1.86-2,4.72-2,8.55V157Zm42.74-53.48q0-5.79-1.88-8.58a6.57,6.57,0,0,0-5.81-2.78A6.68,6.68,0,0,0,118,95c-1.31,1.86-2,4.72-2,8.55v31.38q0,5.74,1.91,8.53a6.69,6.69,0,0,0,5.93,2.77,6.57,6.57,0,0,0,5.81-2.77q1.88-2.79,1.88-8.53Z"/><path class="cls-2" d="M114.82,159.38a9.06,9.06,0,0,0,9,9.05,8.46,8.46,0,0,0,6.28-2.66,8.75,8.75,0,0,0,2.61-6.39,8.66,8.66,0,0,0-2.59-6.36,8.47,8.47,0,0,0-6.3-2.63,8.77,8.77,0,0,0-6.44,2.63A8.67,8.67,0,0,0,114.82,159.38Z"/><circle class="cls-3" cx="320.83" cy="47.14" r="41.91" transform="translate(60.64 240.67) rotate(-45)"/></g></g></svg>